<svg xmlns="http://www.w3.org/2000/svg" width="2500" height="1200" 
     fill="none" stroke="blue" 
     stroke-width="2" stroke-dasharray=".4 2" stroke-linecap="round"> 

  <line x1="249" y1="128" x2="1336" y2="128" stroke-dasharray="3" stroke="magenta" />
  <line x1="1336" y1="128" x2="1336" y2="926" stroke-dasharray="3" stroke="magenta" />
  <line x1="1336" y1="926" x2="249" y2="926"  stroke-dasharray="3" stroke="magenta" />
  <line x1="249" y1="926" x2="249" y2="128" stroke-dasharray="3" stroke="magenta" />

  <line x1="269" y1="148" x2="1316" y2="148" stroke-dasharray="3" stroke="salmon" />
  <line x1="1316" y1="148" x2="1316" y2="906" stroke-dasharray="3" stroke="salmon" />
  <line x1="1316" y1="906" x2="269" y2="906"  stroke-dasharray="3" stroke="salmon" />
  <line x1="269" y1="906" x2="269" y2="148" stroke-dasharray="3" stroke="salmon" />

  <line x1="289" y1="168" x2="1296" y2="168" stroke-dasharray="0" stroke="black" />
  <line x1="1296" y1="168" x2="1296" y2="886" stroke-dasharray="0" stroke="black" />
  <line x1="1296" y1="887" x2="289" y2="887"  stroke-dasharray="0" stroke="black" />
  <line x1="289" y1="887" x2="289" y2="168" stroke-dasharray="0" stroke="black" />

  <line x1="432" y1="168" x2="432" y2="887" stroke="purple" />
  <line x1="576" y1="168" x2="576" y2="887" stroke="purple" />
  <line x1="720" y1="168" x2="720" y2="887" stroke="purple" />
  <line x1="864" y1="168" x2="864" y2="887" stroke="purple" />
  <line x1="1008" y1="168" x2="1008" y2="887" stroke="purple" />
  <line x1="1152" y1="168" x2="1152" y2="887" stroke="purple" />

  <line x1="290" y1="312" x2="1296" y2="312" stroke="green" />
  <line x1="290" y1="456" x2="1296" y2="456" stroke="green" />
  <line x1="290" y1="600" x2="1296" y2="600" stroke="green" />
  <line x1="290" y1="744" x2="1296" y2="744" stroke="green" />






</svg>
